# xmcd CD database file
#
# Track frame offsets:
#	150
#	16200
#	28802
#	53647
#	68160
#	91605
#	114195
#	131240
#	151540
#	177530
#	196162
#	220285
#	245265
#	264002
#	285780
#
# Disc length: 4062 seconds
#
# Revision: 1
# Processed by: cddbd v1.4PL0 Copyright (c) Steve Scherf et al.
# Submitted via: CDex 1.51
#
DISCID=b80fdc0f
DTITLE=Flat Foot Stompers - A Tribute To Werner "Jupp" Neidhardt
DYEAR=2001
DGENRE=Jazz
TTITLE0=Darktown Strutters Ball
TTITLE1=Goose Pimples
TTITLE2=Way Down Yonder In New Orleans
TTITLE3=That Da Da Strain
TTITLE4=Up A Lazy River
TTITLE5=At The Jazz Band Ball
TTITLE6=Squeeze Me
TTITLE7=Mississippi Mud
TTITLE8=Eccentric Rag
TTITLE9=Side Walk Blues
TTITLE10=South Rampart Sreet Parade
TTITLE11=Wolverine Blues
TTITLE12=New Orleans
TTITLE13=Original Dixiland One Step
TTITLE14=Bye Bye Blues
EXTD=YEAR: 2001
EXTT0=
EXTT1=
EXTT2=
EXTT3=
EXTT4=
EXTT5=
EXTT6=
EXTT7=
EXTT8=
EXTT9=
EXTT10=
EXTT11=
EXTT12=
EXTT13=
EXTT14=
PLAYORDER=
